<?xml version="1.0" encoding="UTF-8"?>
<svg id="Layer_1" xmlns="http://www.w3.org/2000/svg" version="1.1" viewBox="0 0 282.53 231.87">
  <!-- Generator: Adobe Illustrator 30.5.1, SVG Export Plug-In . SVG Version: 2.1.4 Build 3)  -->
  <defs>
    <style>
      .st0 {
        fill: #fff;
      }

      .st1 {
        stroke: #000;
        stroke-miterlimit: 10;
        stroke-width: 2.53px;
      }
    </style>
  </defs>
  <rect class="st1" x="1.27" y="1.27" width="280" height="229.33" rx="35.89" ry="35.89"/>
  <path class="st0" d="M59.64,70.78v7.69h-23.76v6.18h22.58v7.5h-22.58v11.32h-9.61v-32.69h33.37Z"/>
  <path class="st0" d="M61.96,70.78h23.24q10.89,0,12.92,1.27c2.41,1.52,3.12,3.68,3.12,9.36,0,4.85-.47,6.71-2.18,8.04-.9.73-1.8,1.08-3.69,1.37,4.88.59,5.73,2.06,5.54,9.61v3.04h-9.47v-1.72c0-3.68-.19-4.85-.95-5.68-.66-.78-1.37-.88-5.35-.88h-13.59v8.28h-9.61v-32.69ZM85.11,87.01q4.83-.1,5.49-.59c.76-.49,1.04-1.47,1.04-3.53,0-2.21-.38-3.14-1.37-3.58-.66-.29-.8-.29-5.16-.34h-13.54v8.04h13.54Z"/>
  <path class="st0" d="M136.24,97.94h-20.88l-2.7,5.54h-10.98l16.71-32.69h14.96l16.52,32.69h-10.93l-2.7-5.54ZM126.77,78.38h-1.89l-6.11,12.4h14.11l-6.11-12.4Z"/>
  <path class="st0" d="M169.79,69.05l9.87,22.35,9.92-22.35h18.24v34.42h-9.97l.25-25.75h-1.7l-12.51,25.75h-8.42l-12.51-25.75h-1.8l.25,25.75h-9.97v-34.42h18.35Z"/>
  <path class="st0" d="M249.4,69.05v8.1h-26.82v5.01h25.47v7.59h-25.47v5.47h27.02v8.26h-36.99v-34.42h36.79Z"/>
  <path class="st0" d="M40.78,115.69v35.07h32.31v11.99H26.27v-47.07h14.52Z"/>
  <path class="st0" d="M126.8,115.69v11.08h-36.67v6.84h34.83v10.37h-34.83v7.48h36.94v11.29h-50.57v-47.07h50.3Z"/>
  <path class="st0" d="M143.44,147.16c0,2.82.27,3.74,1.36,4.45,1.29.85,2.79.99,12.54.99q14.86,0,14.86-4.16c0-2.82-1.02-3.53-5.45-3.6l-10.91-.42-7.36-.35-3.68-.14c-11.25-.35-14.38-3.32-14.38-13.69,0-8.96,2.45-12.98,8.72-14.4,2.66-.57,8.93-.85,19.83-.85,13.22,0,17.99.63,21.2,2.89,2.73,1.9,3.82,4.87,3.82,10.44,0,.28,0,1.27-.07,2.19h-13.36c-.14-2.61-.34-3.25-1.36-3.88-1.16-.71-2.86-.85-12.68-.85-11.72,0-12.68.28-12.68,3.74,0,1.76.61,2.68,2.04,3.03,1.23.35,4.98.56,14.59.85,14.99.49,17.92.85,20.86,2.75,3.14,2.12,4.29,5.29,4.29,11.86,0,8.19-1.91,12.21-6.61,14.04-2.73,1.06-8.45,1.41-22.02,1.41s-19.63-.63-22.83-2.75c-3.14-2.05-4.16-4.8-4.16-11.29v-2.26h13.43Z"/>
  <path class="st0" d="M202.47,147.16c0,2.82.27,3.74,1.36,4.45,1.29.85,2.79.99,12.54.99q14.86,0,14.86-4.16c0-2.82-1.02-3.53-5.45-3.6l-10.91-.42-7.36-.35-3.68-.14c-11.25-.35-14.38-3.32-14.38-13.69,0-8.96,2.45-12.98,8.72-14.4,2.66-.57,8.93-.85,19.83-.85,13.22,0,17.99.63,21.2,2.89,2.73,1.9,3.82,4.87,3.82,10.44,0,.28,0,1.27-.07,2.19h-13.36c-.14-2.61-.34-3.25-1.36-3.88-1.16-.71-2.86-.85-12.68-.85-11.72,0-12.68.28-12.68,3.74,0,1.76.61,2.68,2.04,3.03,1.23.35,4.98.56,14.59.85,14.99.49,17.92.85,20.86,2.75,3.14,2.12,4.29,5.29,4.29,11.86,0,8.19-1.91,12.21-6.61,14.04-2.73,1.06-8.45,1.41-22.02,1.41s-19.63-.63-22.83-2.75c-3.14-2.05-4.16-4.8-4.16-11.29v-2.26h13.43Z"/>
  <g>
    <path class="st0" d="M221.72,46.28h-4.88v-2.31h12.48v2.31h-4.88v12.4h-2.73v-12.4Z"/>
    <path class="st0" d="M247,58.67l-.02-9.75-4.83,8.07h-1.22l-4.83-7.94v9.62h-2.61v-14.71h2.25l5.84,9.75,5.74-9.75h2.25l.02,14.71h-2.58Z"/>
  </g>
</svg>